<svg xmlns="http://www.w3.org/2000/svg" xml:space="preserve" width="1080" height="1080" viewBox="0 0 1080 1080"><path d="M1750 6000V1840h8510v8320H1750V6000zm8270-5V2070H1980v7850h8040V5995z" style="stroke:none;stroke-width:1;stroke-dasharray:none;stroke-linecap:butt;stroke-dashoffset:0;stroke-linejoin:miter;stroke-miterlimit:4;fill:#000;fill-rule:nonzero;opacity:1" transform="matrix(.13 0 0 -.13 -242 1314.58)" vector-effect="non-scaling-stroke"/><path d="M4430 8268c-80-4-219-5-310-2-153 5-380-11-433-32-22-8-26-23-47-174-24-168-26-382-4-625 10-112 16-311 18-525 2-364 3-377 49-402 34-18 249-34 367-27 63 4 172 1 275-8 251-22 357-7 390 56 28 54 38 155 37 351 0 113 3 206 9 222 10 24 19 28 97 42 156 28 225 31 260 10 17-10 37-32 44-48 19-44 18-1382-1-1891-8-209-13-401-12-427 3-77-1-78-219-78-205 1-259-8-289-47-23-28-46-170-37-221 4-20 11-191 15-379 7-307 9-345 25-362 25-28 138-44 255-38 536 31 1560 51 1744 35 159-13 303-7 325 16 14 14 16 50 17 294 0 152 5 356 9 453 8 156 7 179-8 211-21 43-38 47-156 36-41-4-137-7-212-7-128-1-138 0-152 20-11 16-12 28-4 50 6 18 7 112 1 271-5 134-8 275-6 313 25 576 31 1020 17 1477-6 216-5 250 9 271 20 31 105 55 223 63 141 10 154-8 175-236 14-155 62-395 84-420 31-35 184-41 372-14 103 14 133 14 238 3 236-25 379-13 410 35 30 46 39 194 25 428-10 171-11 270-2 465 12 268 2 693-19 770-21 78-102 92-409 69-335-25-698-29-1320-15-677 16-657 16-985 5-200-6-287-5-435 8-198 17-210 17-430 4z" style="stroke:none;stroke-width:1;stroke-dasharray:none;stroke-linecap:butt;stroke-dashoffset:0;stroke-linejoin:miter;stroke-miterlimit:4;fill:#000;fill-rule:nonzero;opacity:1" transform="matrix(.16 0 0 -.16 -401.58 1485.133)" vector-effect="non-scaling-stroke"/></svg>